<?xml version="1.0" standalone="no"?>
<!DOCTYPE svg PUBLIC "-//W3C//DTD SVG 20010904//EN"
 "http://www.w3.org/TR/2001/REC-SVG-20010904/DTD/svg10.dtd">
<svg version="1.0" xmlns="http://www.w3.org/2000/svg"
 width="500.000000pt" height="500.000000pt" viewBox="0 0 500.000000 500.000000"
 preserveAspectRatio="xMidYMid meet">
<metadata>
Created by potrace 1.14, written by Peter Selinger 2001-2017
</metadata>
<g transform="translate(0.000000,500.000000) scale(0.100000,-0.100000)"
fill="#000000" stroke="none">
<path d="M2917 4763 c-13 -13 -7 -38 18 -67 50 -58 70 -115 70 -201 0 -46 -6
-94 -14 -113 l-14 -34 -30 57 c-64 118 -170 180 -307 179 -103 -1 -160 -18
-160 -47 0 -39 15 -45 79 -31 68 14 146 9 196 -12 72 -30 133 -103 149 -179
l6 -30 -137 1 c-120 2 -186 -3 -293 -20 -432 -69 -805 -370 -942 -761 -26 -74
-26 -100 -2 -109 27 -10 43 6 58 57 23 77 97 223 150 295 178 240 437 392 776
454 70 12 362 19 380 8 23 -14 -16 -98 -70 -151 -69 -68 -174 -87 -284 -54
-66 20 -83 19 -91 -5 -9 -28 7 -44 56 -59 181 -54 353 0 425 134 23 43 30 44
38 4 21 -106 -8 -218 -75 -287 -46 -48 -50 -85 -11 -90 28 -4 92 61 124 128
29 58 45 152 38 217 -6 61 0 60 30 -3 24 -53 30 -150 11 -198 -13 -33 -1 -56
31 -56 29 0 51 62 50 146 0 100 -35 177 -114 248 -55 50 -57 54 -36 59 33 9
105 72 134 119 50 79 67 217 34 278 -22 42 -77 11 -60 -34 21 -59 -13 -201
-58 -238 -11 -10 -12 -6 -5 18 4 16 8 67 8 114 -1 92 -24 161 -81 235 -25 33
-60 46 -77 28z"/>
<path d="M3074 4235 c-13 -33 10 -50 79 -59 76 -10 97 -5 97 23 0 28 -30 41
-105 48 -56 5 -66 3 -71 -12z"/>
<path d="M1823 3622 c-11 -11 -13 -123 -13 -603 1 -513 3 -590 16 -604 19 -19
28 -19 45 1 10 12 13 130 13 582 l1 566 600 1 c330 0 605 -1 610 -2 7 -2 10
-296 10 -881 -1 -935 -2 -917 46 -905 10 3 20 8 20 12 1 3 2 415 3 914 1 765
0 910 -12 920 -22 18 -1321 17 -1339 -1z"/>
<path d="M2147 3422 c-16 -3 -17 -40 -17 -446 l0 -443 70 0 70 1 0 443 c0 244
-3 443 -7 444 -28 3 -102 3 -116 1z"/>
<path d="M2435 2978 l0 -443 70 0 70 0 1 443 1 442 -71 0 -71 0 0 -442z"/>
<path d="M2740 2975 l0 -445 70 2 70 2 0 443 0 443 -70 0 -70 0 0 -445z"/>
<path d="M1362 3243 l3 -57 165 0 165 -1 3 58 3 57 -171 0 -171 0 3 -57z"/>
<path d="M3290 3243 l0 -58 172 0 173 0 5 35 c3 19 4 45 1 58 -3 22 -5 22
-177 22 l-174 0 0 -57z"/>
<path d="M1310 3012 l0 -59 225 0 c124 0 225 4 226 9 0 4 1 22 1 38 0 78 24
70 -227 70 l-225 0 0 -58z"/>
<path d="M3235 3058 c-2 -7 -3 -33 -2 -58 l2 -45 233 -1 232 -1 0 58 0 59
-230 0 c-176 0 -232 -3 -235 -12z"/>
<path d="M1522 2883 c-10 -19 -10 -26 13 -151 33 -174 117 -364 231 -514 230
-308 601 -496 1254 -638 179 -39 342 -100 417 -156 38 -28 59 -30 71 -6 14 27
4 41 -60 83 -105 67 -192 95 -583 189 -623 150 -966 374 -1157 755 -59 118
-111 288 -119 395 -2 19 -7 41 -12 48 -14 18 -45 15 -55 -5z"/>
<path d="M1840 1922 c-8 -3 -18 -10 -22 -16 -4 -6 -8 -151 -8 -322 0 -237 3
-314 13 -322 11 -9 133 -43 937 -261 412 -112 396 -108 407 -85 7 15 11 419 4
495 0 9 -10 19 -21 22 -40 10 -45 -14 -45 -237 -1 -204 -1 -211 -20 -208 -11
2 -132 34 -270 72 -137 37 -387 105 -555 150 -168 45 -321 87 -341 92 l-37 11
2 290 c1 246 -1 294 -14 308 -8 9 -22 15 -30 11z"/>
<path d="M1815 1079 c-11 -32 9 -43 135 -77 180 -48 965 -261 1065 -288 127
-35 132 -36 149 -18 32 32 17 45 -84 73 -78 22 -637 174 -795 217 -49 13 -142
37 -205 54 -63 17 -137 37 -164 45 -69 21 -93 19 -101 -6z"/>
<path d="M1822 888 c-18 -18 -15 -30 16 -64 58 -65 151 -120 233 -140 19 -4
113 -8 209 -9 193 -1 233 -10 335 -73 161 -99 242 -131 356 -139 141 -9 231
23 196 72 -12 15 -19 16 -76 4 -120 -23 -240 4 -376 86 -183 111 -242 127
-465 123 -117 -1 -155 2 -198 16 -55 18 -143 79 -168 115 -17 23 -44 27 -62 9z"/>
<path d="M1826 637 c-12 -9 -16 -20 -12 -34 5 -16 35 -28 164 -63 86 -23 379
-102 650 -176 271 -74 501 -134 512 -134 23 0 42 31 31 49 -8 13 -101 39 -901
255 -217 59 -402 109 -411 112 -8 2 -23 -2 -33 -9z"/>
</g>
</svg>
