<?xml version="1.0" encoding="UTF-8"?>
<svg width="16px" height="16px" viewBox="0 0 16 16" version="1.1" xmlns="http://www.w3.org/2000/svg" xmlns:xlink="http://www.w3.org/1999/xlink">
    <!-- Generator: Sketch 62 (91390) - https://sketch.com -->
    <title>Buttons/_Part/icon</title>
    <desc>Created with Sketch.</desc>
    <defs>
        <path d="M9.99853611,2.42073856 C10.5715169,1.85899113 11.4885268,1.85899113 12.0661278,2.42532866 L12.0661278,2.42532866 L13.5678271,3.93715477 C13.8445262,4.21360225 14,4.58873023 14,4.97990366 C14,5.37107708 13.8445262,5.74620507 13.5680204,6.02245936 L13.5680204,6.02245936 L7.67326158,11.9184133 C7.30068258,12.2898806 6.85508017,12.5799651 6.36307617,12.7709212 L6.36307617,12.7709212 L3.33082349,13.935893 C2.96926229,14.0733132 2.56073141,13.9857388 2.28723265,13.7121846 C2.01373389,13.4386303 1.92617729,13.0300166 2.06519985,12.6641499 L2.06519985,12.6641499 L3.24702712,9.63794265 C3.43445679,9.14207295 3.7259795,8.69214863 4.10194919,8.31849061 L4.10194919,8.31849061 Z M4.3752236,9.55227333 C4.29255178,9.69089837 4.22187141,9.83733024 4.16399369,9.99041895 L4.16399369,9.99041895 L2.98148599,13.0172991 L6.00925813,11.8542989 C6.16451772,11.7940388 6.31371845,11.7203007 6.455191,11.6341865 Z M9.815,3.993 L4.993,8.816 L7.19,11.012 L12.012,6.189 L9.815,3.993 Z M11.3738504,3.12243153 C11.1828568,2.93518238 10.8771869,2.93518238 10.689684,3.11897483 L10.689684,3.11897483 L10.492,3.315 L12.689,5.511 L12.873575,5.32748662 C12.9473614,5.25376729 12.9952865,5.15899612 13.011505,5.05727616 L13.0176326,4.97990366 C13.0176326,4.84951252 12.965808,4.72446985 12.8722523,4.63099411 L12.8722523,4.63099411 Z" id="path-1"/>
    </defs>
    <g id="Page-1" stroke="none" stroke-width="1" fill="none" fill-rule="evenodd">
        <g id="Alibaba---Profile-View---Desktop" transform="translate(-897.000000, -778.000000)">
            <g id="Group-7" transform="translate(831.000000, 275.000000)">
                <g id="Table" transform="translate(0.000000, 403.000000)">
                    <g id="Buttons/Text-link-+-icon/icon-right/blue/default" transform="translate(20.000000, 100.000000)">
                        <g id="Buttons/_Part/icon" transform="translate(46.000000, 0.000000)">
                            <g id="Edit">
                                <mask id="mask-2" fill="white">
                                    <use xlink:href="#path-1"/>
                                </mask>
                                <use id="Combined-Shape" fill="#000000" fill-rule="nonzero" xlink:href="#path-1"/>
                                <g id="Blue/B400" mask="url(#mask-2)" fill="#0077DB">
                                    <rect id="B400" x="0" y="0" width="16" height="16"/>
                                </g>
                            </g>
                        </g>
                    </g>
                </g>
            </g>
        </g>
    </g>
</svg>