<svg viewBox="0 0 24 24" xmlns="http://www.w3.org/2000/svg"><path d="M21.077 18.367l-2.8-2.804c-.312-.323-.65-.478-.996-.478-.348 0-.698.157-1.03.489l-1.605 1.595-.706-.71 1.605-1.594c.512-.512 1.112-.78 1.736-.78.63 0 1.224.273 1.717.785l2.787 2.79c.513.506.783 1.109.783 1.737 0 .623-2.052 3.003-2.336 3.347-.772.836-1.757 1.256-2.93 1.256-.102 0-.214-.005-.32-.01-1.742-.112-3.301-.765-4.47-1.317C9.457 21.2 6.78 19.108 4.557 16.46 2.722 14.262 1.494 12.21.67 9.998c-.335-.9-.772-2.278-.65-3.757a3.7 3.7 0 011.102-2.355c1.896-1.66 3.05-2.491 3.463-2.491.62 0 1.209.258 1.701.744.33.304.65.628.955.942.152.162.315.324.472.481L9.1 4.945c1.067 1.063 1.067 2.44 0 3.504-.142.142-.284.289-.426.43-.376.38-.762.775-1.178 1.155.31.683.736 1.357 1.37 2.157.698.854 1.41 1.605 2.152 2.264l-.666.747a20.625 20.625 0 01-2.27-2.39c-.68-.856-1.15-1.598-1.498-2.366l-.3-.661.537-.49c.18-.164.364-.34.574-.548l.284-.284.288-.291.207-.21c.108-.109.157-.159.22-.22.674-.674.674-1.417 0-2.09L7.006 4.27a19.774 19.774 0 01-.484-.493 21.763 21.763 0 00-.94-.926c-.31-.307-.65-.456-.997-.456-.13.119-.336.251-.59.434-.547.394-1.287.998-2.166 1.765a2.697 2.697 0 00-.812 1.73c-.087 1.054.134 2.097.591 3.326.784 2.108 1.958 4.062 3.713 6.167 2.136 2.543 4.7 4.545 7.619 5.952 1.556.736 2.79 1.139 4.088 1.222.137.007.208.009.273.009.898 0 1.615-.307 2.158-.892l.435-.52a36.4 36.4 0 00.931-1.172c.256-.34.462-.635.602-.867.06-.1.106-.185.135-.247-.026-.32-.183-.637-.486-.935zM11.99 0C18.623 0 24 5.373 24 12h-1c0-6.075-4.93-11-11.01-11V0zm0 5V4c4.422 0 8.007 3.582 8.007 8h-1c0-3.866-3.137-7-7.007-7z" fill="currentColor"/></svg>