<svg width="16px" height="13px" viewBox="0 0 16 13" version="1.1" xmlns="http://www.w3.org/2000/svg" xmlns:xlink="http://www.w3.org/1999/xlink">
    <g stroke="none" stroke-width="1" fill="none" fill-rule="evenodd">
        <g id="Alibaba---Signin/Signup---OTP---Error---Mobile" transform="translate(-208.000000, -397.000000)" fill="#4A90E2" fill-rule="nonzero">
            <g id="Signin/Signup" transform="translate(15.000000, 75.000000)">
                <g transform="translate(15.000000, 47.000000)">
                    <g transform="translate(17.000000, 118.000000)">
                        <g transform="translate(89.000000, 152.000000)">
                            <path d="M87.9104849,13.0238173 C88.0944817,13.3514587 87.9858169,13.7693897 87.6671558,13.9581768 C87.5624909,14.0211059 87.4471596,14.0505183 87.3338283,14.0505183 C87.1038323,14.0505183 86.8798362,13.9280803 86.7558383,13.7085127 L86.296513,12.8931711 C85.7391893,15.2263339 83.8912215,17.2482715 81.4872633,17.8262611 C81.0019384,17.942543 80.5119469,18 80.0279553,18 C78.3813173,18 76.789345,17.339929 75.5826993,16.1155487 C75.3207038,15.8494682 75.3180372,15.416489 75.577366,15.1476726 C75.8366949,14.8788561 76.2580209,14.8768041 76.5200163,15.1428845 C77.7546615,16.3946253 79.4972979,16.9007937 81.1826019,16.493807 C83.1719006,16.015683 84.6818744,14.3001825 85.0505346,12.3623783 L84.0798848,13.549822 C83.843889,13.8384748 83.4225629,13.8767795 83.1412345,13.6339554 C82.8592394,13.3911314 82.8219067,12.9595202 83.0592359,12.6701834 L85.200532,10.0490518 C85.3411962,9.87873298 85.5525259,9.79049552 85.7698555,9.8075958 C85.9385192,9.82264405 86.0911832,9.90404141 86.2031813,10.0305835 C86.2398473,10.0695722 86.2698468,10.1133489 86.2971796,10.1605457 L87.9104849,13.0238173 Z M76.943209,10.0580124 C77.2258707,10.3001524 77.2618701,10.7317636 77.0258742,11.0217844 L74.8845781,13.642916 C74.757247,13.7988706 74.5692502,13.887792 74.3739203,13.887792 C74.3559206,13.887792 74.3392542,13.887108 74.3212546,13.88574 C74.1065916,13.8679557 73.9132617,13.7455177 73.8025969,13.5553625 L72.0952933,10.6407901 C71.9052966,10.3165687 72.0086281,9.89658568 72.3232893,9.70164244 C72.6392838,9.50738321 73.04861,9.61272096 73.2386067,9.93557433 L73.6159335,10.5812811 C73.7492645,9.79466799 74.0192598,9.02789124 74.4352526,8.3158354 C75.3605698,6.73234908 76.8772101,5.58663003 78.5965135,5.17280315 C80.8731406,4.62422603 83.247766,5.40331498 84.7957391,7.20363291 C85.0397348,7.48749763 85.012402,7.91979282 84.7364068,8.16945697 C84.4597449,8.41912112 84.0397522,8.39176066 83.7957565,8.10857996 C82.5731111,6.68720433 80.698477,6.0722781 78.9018416,6.5052573 C77.5311987,6.83426677 76.3198865,7.75084201 75.5792327,9.01899909 C75.120574,9.80492816 74.8779115,10.6708866 74.8559119,11.5484731 L76.0045586,10.1428298 C76.2405545,9.85280895 76.6605472,9.81518833 76.943209,10.0580124 Z" id="Shape"></path>
                        </g>
                    </g>
                </g>
            </g>
        </g>
    </g>
</svg>
